<?xml version="1.0" encoding="UTF-8"?>
<svg xmlns="http://www.w3.org/2000/svg" xmlns:xlink="http://www.w3.org/1999/xlink" width="315.39pt" height="275.04pt" viewBox="0 0 315.39 275.04" version="1.1">
<defs>
<clipPath id="clip1">
  <path d="M 0 241 L 315.390625 241 L 315.390625 242 L 0 242 Z M 0 241 "/>
</clipPath>
<clipPath id="clip2">
  <path d="M 71 253 L 166 253 L 166 275.039063 L 71 275.039063 Z M 71 253 "/>
</clipPath>
<clipPath id="clip3">
  <path d="M 173 254 L 193 254 L 193 275.039063 L 173 275.039063 Z M 173 254 "/>
</clipPath>
<clipPath id="clip4">
  <path d="M 201 253 L 250 253 L 250 275.039063 L 201 275.039063 Z M 201 253 "/>
</clipPath>
<clipPath id="clip5">
  <path d="M 0 114 L 315.390625 114 L 315.390625 178 L 0 178 Z M 0 114 "/>
</clipPath>
<clipPath id="clip6">
  <path d="M 295 201 L 315.390625 201 L 315.390625 229 L 295 229 Z M 295 201 "/>
</clipPath>
</defs>
<g id="surface1">
<g clip-path="url(#clip1)" clip-rule="nonzero">
<path style="fill:none;stroke-width:6.78;stroke-linecap:butt;stroke-linejoin:miter;stroke:rgb(84.375%,70.506287%,42.747498%);stroke-opacity:1;stroke-miterlimit:4;" d="M 0.15625 335.4 L 3153.710938 335.4 " transform="matrix(0.1,0,0,-0.1,0,275.04)"/>
</g>
<g clip-path="url(#clip2)" clip-rule="nonzero">
<path style=" stroke:none;fill-rule:nonzero;fill:rgb(17.259216%,17.259216%,16.868591%);fill-opacity:1;" d="M 102.398438 263.023438 C 102.398438 263.480469 102.273438 263.902344 102.066406 264.230469 C 101.8125 264.609375 101.480469 264.773438 101.023438 264.773438 C 100.523438 264.773438 100.148438 264.65625 99.855469 264.359375 C 99.605469 264.109375 99.480469 263.816406 99.480469 263.523438 C 99.480469 263.316406 99.480469 263.144531 99.527344 262.988281 C 99.570313 262.8125 99.570313 262.652344 99.605469 262.476563 C 99.1875 262.476563 98.6875 262.652344 98.105469 262.988281 C 97.566406 263.355469 97.066406 263.816406 96.679688 264.4375 L 96.679688 272.199219 C 96.679688 272.484375 96.730469 272.777344 96.851563 272.949219 C 96.976563 273.15625 97.191406 273.324219 97.441406 273.410156 C 97.644531 273.488281 97.9375 273.574219 98.3125 273.609375 C 98.652344 273.652344 98.980469 273.695313 99.230469 273.695313 L 99.230469 274.574219 L 92.226563 274.574219 L 92.226563 273.695313 C 92.433594 273.695313 92.644531 273.652344 92.847656 273.652344 C 93.097656 273.609375 93.265625 273.574219 93.4375 273.53125 C 93.6875 273.449219 93.894531 273.324219 93.976563 273.113281 C 94.097656 272.90625 94.191406 272.65625 94.191406 272.324219 L 94.191406 264.109375 C 94.191406 263.859375 94.097656 263.566406 93.976563 263.316406 C 93.851563 263.023438 93.6875 262.8125 93.4375 262.652344 C 93.265625 262.5625 93.0625 262.476563 92.808594 262.398438 C 92.601563 262.359375 92.351563 262.316406 92.058594 262.316406 L 92.058594 261.4375 L 96.480469 261.144531 L 96.679688 261.316406 L 96.679688 263.1875 L 96.730469 263.1875 C 97.3125 262.476563 97.9375 261.933594 98.601563 261.566406 C 99.273438 261.1875 99.898438 260.976563 100.480469 260.976563 C 101.0625 260.976563 101.527344 261.144531 101.859375 261.523438 C 102.234375 261.902344 102.398438 262.398438 102.398438 263.023438 M 110.316406 260.9375 L 110.316406 261.933594 C 109.652344 261.984375 109.070313 262.148438 108.617188 262.476563 C 108.109375 262.8125 107.691406 263.277344 107.402344 263.859375 C 107.109375 264.402344 106.902344 265.023438 106.777344 265.730469 C 106.695313 266.4375 106.609375 267.113281 106.609375 267.777344 C 106.609375 268.652344 106.695313 269.445313 106.816406 270.152344 C 106.988281 270.90625 107.195313 271.527344 107.484375 272.109375 C 107.777344 272.695313 108.1875 273.15625 108.652344 273.488281 C 109.109375 273.777344 109.652344 273.945313 110.316406 273.945313 L 110.316406 274.988281 L 110.195313 274.988281 C 109.359375 274.988281 108.527344 274.824219 107.777344 274.527344 C 107.027344 274.195313 106.320313 273.734375 105.738281 273.113281 C 105.148438 272.527344 104.691406 271.78125 104.359375 270.90625 C 103.984375 270.074219 103.820313 269.074219 103.820313 267.984375 C 103.820313 265.941406 104.445313 264.230469 105.652344 262.898438 C 106.816406 261.605469 108.402344 260.9375 110.316406 260.9375 M 90.0625 266.941406 C 89.847656 266.984375 89.554688 267.023438 89.183594 267.070313 C 88.847656 267.152344 88.554688 267.234375 88.308594 267.320313 C 88.0625 267.445313 87.847656 267.652344 87.722656 267.902344 C 87.640625 268.148438 87.554688 268.445313 87.554688 268.777344 L 87.554688 270.230469 C 87.554688 271.320313 87.597656 272.078125 87.597656 272.445313 C 87.597656 272.824219 87.640625 273.113281 87.640625 273.359375 C 86.433594 273.90625 85.265625 274.324219 84.058594 274.613281 C 82.890625 274.90625 81.71875 275.027344 80.589844 275.027344 C 79.34375 275.027344 78.179688 274.824219 77.054688 274.363281 C 75.925781 273.90625 74.925781 273.234375 74.09375 272.402344 C 73.214844 271.527344 72.546875 270.484375 72.050781 269.273438 C 71.550781 268.066406 71.300781 266.691406 71.300781 265.195313 C 71.300781 263.730469 71.550781 262.398438 72.003906 261.144531 C 72.507813 259.898438 73.171875 258.8125 74.050781 257.894531 C 74.925781 257.019531 75.925781 256.3125 77.140625 255.8125 C 78.300781 255.3125 79.550781 255.0625 80.890625 255.0625 C 81.96875 255.0625 82.929688 255.1875 83.722656 255.433594 C 84.515625 255.722656 85.226563 256.015625 85.84375 256.402344 L 86.394531 255.480469 L 87.472656 255.480469 L 87.597656 262.148438 L 86.476563 262.148438 C 86.308594 261.4375 86.058594 260.683594 85.765625 259.984375 C 85.515625 259.269531 85.140625 258.605469 84.722656 258.0625 C 84.269531 257.480469 83.722656 257.066406 83.097656 256.683594 C 82.46875 256.355469 81.71875 256.183594 80.839844 256.183594 C 79.84375 256.183594 79.007813 256.402344 78.257813 256.769531 C 77.507813 257.191406 76.84375 257.773438 76.300781 258.519531 C 75.71875 259.269531 75.300781 260.1875 75.007813 261.316406 C 74.71875 262.441406 74.589844 263.683594 74.589844 265.066406 C 74.589844 266.273438 74.71875 267.40625 75.007813 268.484375 C 75.300781 269.570313 75.71875 270.484375 76.300781 271.28125 C 76.84375 272.078125 77.550781 272.695313 78.386719 273.15625 C 79.21875 273.609375 80.136719 273.820313 81.21875 273.820313 C 82.011719 273.820313 82.726563 273.695313 83.386719 273.488281 C 84.015625 273.234375 84.476563 272.980469 84.769531 272.695313 C 84.851563 272.234375 84.851563 271.78125 84.886719 271.28125 L 84.886719 269.023438 C 84.886719 268.652344 84.804688 268.324219 84.722656 268.027344 C 84.640625 267.730469 84.394531 267.527344 84.097656 267.40625 C 83.804688 267.234375 83.386719 267.152344 82.890625 267.070313 C 82.390625 267.023438 81.96875 266.984375 81.679688 266.941406 L 81.679688 265.980469 L 90.0625 265.980469 Z M 165.980469 274.574219 L 159.464844 274.574219 L 159.464844 273.695313 C 159.675781 273.695313 159.890625 273.652344 160.140625 273.652344 C 160.390625 273.609375 160.59375 273.574219 160.761719 273.53125 C 161.015625 273.449219 161.183594 273.324219 161.304688 273.113281 C 161.433594 272.90625 161.46875 272.65625 161.46875 272.324219 L 161.46875 265.484375 C 161.46875 264.5625 161.257813 263.816406 160.8125 263.316406 C 160.390625 262.8125 159.847656 262.5625 159.21875 262.5625 C 158.769531 262.5625 158.34375 262.605469 157.929688 262.773438 C 157.554688 262.898438 157.175781 263.105469 156.890625 263.316406 C 156.550781 263.523438 156.339844 263.773438 156.175781 263.984375 C 156.011719 264.1875 155.890625 264.402344 155.808594 264.5625 L 155.808594 272.199219 C 155.808594 272.484375 155.84375 272.734375 155.964844 272.949219 C 156.089844 273.15625 156.265625 273.277344 156.550781 273.410156 C 156.71875 273.488281 156.929688 273.574219 157.132813 273.609375 C 157.34375 273.652344 157.589844 273.695313 157.84375 273.695313 L 157.84375 274.574219 L 151.308594 274.574219 L 151.308594 273.695313 C 151.507813 273.695313 151.757813 273.652344 151.96875 273.652344 C 152.179688 273.609375 152.382813 273.574219 152.554688 273.53125 C 152.800781 273.449219 152.96875 273.324219 153.09375 273.113281 C 153.214844 272.90625 153.308594 272.65625 153.308594 272.324219 L 153.308594 256.855469 C 153.308594 256.5625 153.214844 256.269531 153.09375 255.933594 C 152.929688 255.644531 152.761719 255.398438 152.554688 255.269531 C 152.382813 255.140625 152.085938 255.0625 151.675781 255.015625 C 151.261719 254.976563 150.925781 254.933594 150.675781 254.894531 L 150.675781 254.0625 L 155.59375 253.722656 L 155.808594 253.933594 L 155.808594 263.1875 L 155.84375 263.1875 C 156.136719 262.898438 156.425781 262.652344 156.640625 262.398438 C 156.890625 262.191406 157.222656 261.933594 157.589844 261.6875 C 157.972656 261.480469 158.34375 261.316406 158.804688 261.144531 C 159.257813 261.023438 159.804688 260.9375 160.34375 260.9375 C 161.507813 260.9375 162.433594 261.316406 163.058594 262.0625 C 163.683594 262.8125 164.015625 263.902344 164.015625 265.324219 L 164.015625 272.199219 C 164.015625 272.527344 164.058594 272.777344 164.1875 272.980469 C 164.3125 273.15625 164.480469 273.324219 164.769531 273.449219 C 164.980469 273.53125 165.144531 273.574219 165.3125 273.609375 C 165.476563 273.652344 165.683594 273.695313 165.980469 273.695313 Z M 149.257813 273.988281 C 148.675781 274.238281 148.136719 274.445313 147.59375 274.613281 C 147.089844 274.78125 146.464844 274.867188 145.671875 274.867188 C 144.589844 274.867188 143.796875 274.574219 143.339844 274.027344 C 142.878906 273.449219 142.671875 272.65625 142.671875 271.65625 L 142.671875 262.652344 L 140.253906 262.652344 L 140.253906 261.359375 L 142.714844 261.359375 L 142.714844 257.226563 L 145.171875 257.226563 L 145.171875 261.359375 L 148.964844 261.359375 L 148.964844 262.652344 L 145.171875 262.652344 L 145.171875 270.074219 C 145.171875 270.65625 145.214844 271.113281 145.257813 271.484375 C 145.300781 271.863281 145.378906 272.152344 145.546875 272.445313 C 145.671875 272.695313 145.925781 272.90625 146.175781 273.027344 C 146.464844 273.15625 146.882813 273.234375 147.339844 273.234375 C 147.59375 273.234375 147.925781 273.234375 148.339844 273.203125 C 148.757813 273.15625 149.09375 273.070313 149.257813 273.027344 Z M 138.175781 262.191406 C 137.796875 262.191406 137.378906 262.359375 136.960938 262.652344 C 136.542969 262.898438 136.214844 263.355469 136.003906 263.902344 C 135.546875 265.230469 135.121094 266.4375 134.75 267.652344 C 134.335938 268.824219 133.878906 270.152344 133.414063 271.609375 C 133.246094 272.078125 133.078125 272.574219 132.921875 273.15625 C 132.746094 273.652344 132.582031 274.195313 132.453125 274.695313 L 131.289063 274.695313 L 127.707031 264.902344 L 124.117188 274.695313 L 123.039063 274.695313 C 122.367188 272.695313 121.699219 270.691406 121.035156 268.730469 C 120.414063 266.773438 119.824219 265.066406 119.367188 263.605469 C 119.199219 263.1875 118.949219 262.859375 118.539063 262.605469 C 118.117188 262.398438 117.746094 262.230469 117.367188 262.191406 L 117.367188 261.316406 L 123.285156 261.316406 L 123.285156 262.230469 C 122.996094 262.265625 122.660156 262.316406 122.328125 262.398438 C 121.992188 262.476563 121.78125 262.652344 121.78125 262.859375 C 121.78125 262.859375 121.828125 262.941406 121.828125 263.0625 C 121.867188 263.1875 121.910156 263.316406 121.949219 263.4375 C 122.242188 264.402344 122.578125 265.4375 122.953125 266.609375 C 123.285156 267.777344 123.785156 269.273438 124.328125 271.15625 L 127.75 261.566406 L 129.042969 261.566406 L 132.496094 270.984375 C 132.875 269.820313 133.246094 268.652344 133.664063 267.527344 C 134.046875 266.394531 134.371094 265.324219 134.664063 264.316406 C 134.703125 264.109375 134.789063 263.902344 134.839844 263.683594 C 134.878906 263.480469 134.917969 263.316406 134.917969 263.105469 C 134.917969 262.988281 134.839844 262.8125 134.703125 262.691406 C 134.542969 262.5625 134.371094 262.476563 134.164063 262.398438 C 134 262.316406 133.792969 262.265625 133.585938 262.230469 C 133.378906 262.191406 133.210938 262.191406 133.121094 262.191406 L 133.121094 261.316406 L 138.175781 261.316406 Z M 110.316406 274.988281 L 110.316406 273.945313 L 110.363281 273.945313 C 111.488281 273.945313 112.367188 273.410156 113.03125 272.324219 C 113.695313 271.238281 114.027344 269.730469 114.027344 267.820313 C 114.027344 267.152344 113.949219 266.4375 113.820313 265.691406 C 113.695313 264.941406 113.492188 264.316406 113.191406 263.816406 C 112.90625 263.234375 112.53125 262.773438 112.070313 262.441406 C 111.617188 262.109375 111.027344 261.933594 110.363281 261.933594 L 110.316406 261.933594 L 110.316406 260.9375 L 110.398438 260.9375 C 112.242188 260.9375 113.78125 261.566406 114.988281 262.8125 C 116.199219 264.066406 116.777344 265.730469 116.777344 267.820313 C 116.777344 268.730469 116.652344 269.652344 116.363281 270.574219 C 116.074219 271.484375 115.613281 272.234375 115.070313 272.863281 C 114.488281 273.574219 113.738281 274.109375 112.945313 274.445313 C 112.152344 274.824219 111.277344 274.988281 110.316406 274.988281 "/>
</g>
<g clip-path="url(#clip3)" clip-rule="nonzero">
<path style=" stroke:none;fill-rule:nonzero;fill:rgb(17.259216%,17.259216%,16.868591%);fill-opacity:1;" d="M 180.585938 274.648438 L 174.1875 274.648438 L 174.1875 273.773438 C 174.402344 273.773438 174.601563 273.726563 174.8125 273.726563 C 175.058594 273.6875 175.230469 273.652344 175.394531 273.613281 C 175.640625 273.527344 175.847656 273.402344 175.929688 273.191406 C 176.054688 272.988281 176.144531 272.738281 176.144531 272.410156 L 176.144531 264.222656 C 176.144531 263.933594 176.054688 263.683594 175.929688 263.429688 C 175.808594 263.222656 175.640625 263.015625 175.394531 262.855469 C 175.230469 262.726563 174.976563 262.644531 174.640625 262.5625 C 174.308594 262.515625 174.023438 262.433594 173.769531 262.433594 L 173.769531 261.558594 L 178.433594 261.273438 L 178.628906 261.441406 L 178.628906 272.234375 C 178.628906 272.570313 178.671875 272.8125 178.804688 273.027344 C 178.929688 273.234375 179.132813 273.402344 179.378906 273.488281 C 179.585938 273.566406 179.75 273.613281 179.964844 273.6875 C 180.128906 273.726563 180.335938 273.773438 180.585938 273.773438 Z M 178.878906 256.035156 C 178.878906 256.574219 178.714844 256.996094 178.382813 257.367188 C 178.058594 257.785156 177.632813 257.945313 177.140625 257.945313 C 176.679688 257.945313 176.304688 257.785156 175.96875 257.40625 C 175.640625 257.035156 175.472656 256.621094 175.472656 256.160156 C 175.472656 255.667969 175.640625 255.253906 175.96875 254.875 C 176.304688 254.5 176.679688 254.335938 177.140625 254.335938 C 177.679688 254.335938 178.089844 254.5 178.433594 254.835938 C 178.714844 255.210938 178.878906 255.582031 178.878906 256.035156 M 191.589844 268.167969 C 191.964844 268.496094 192.253906 268.871094 192.464844 269.292969 C 192.664063 269.707031 192.753906 270.246094 192.753906 270.824219 C 192.753906 272.066406 192.300781 273.0625 191.382813 273.855469 C 190.46875 274.601563 189.265625 275.019531 187.8125 275.019531 C 187.023438 275.019531 186.316406 274.855469 185.695313 274.601563 C 185.027344 274.3125 184.578125 274.0625 184.28125 273.8125 L 184.027344 274.683594 L 183.03125 274.683594 L 182.867188 270.117188 L 183.820313 270.117188 C 183.859375 270.449219 184.027344 270.863281 184.28125 271.324219 C 184.484375 271.777344 184.777344 272.191406 185.117188 272.570313 C 185.445313 272.988281 185.90625 273.316406 186.355469 273.566406 C 186.855469 273.855469 187.398438 273.980469 188.019531 273.980469 C 188.894531 273.980469 189.515625 273.773438 190.011719 273.402344 C 190.46875 272.988281 190.671875 272.445313 190.671875 271.738281 C 190.671875 271.363281 190.640625 271.03125 190.46875 270.742188 C 190.339844 270.488281 190.097656 270.246094 189.847656 270.035156 C 189.515625 269.824219 189.175781 269.621094 188.722656 269.492188 C 188.3125 269.332031 187.8125 269.167969 187.3125 269.003906 C 186.898438 268.871094 186.398438 268.703125 185.90625 268.460938 C 185.402344 268.246094 184.945313 268.003906 184.578125 267.710938 C 184.191406 267.371094 183.859375 267.003906 183.613281 266.542969 C 183.371094 266.085938 183.242188 265.546875 183.242188 264.921875 C 183.242188 263.847656 183.660156 262.929688 184.445313 262.183594 C 185.234375 261.441406 186.316406 261.0625 187.6875 261.0625 C 188.183594 261.0625 188.722656 261.105469 189.265625 261.273438 C 189.800781 261.394531 190.257813 261.558594 190.597656 261.726563 L 190.894531 261.023438 L 191.886719 261.023438 L 192.039063 265.304688 L 191.132813 265.304688 C 190.96875 264.339844 190.550781 263.554688 189.921875 262.976563 C 189.308594 262.390625 188.558594 262.101563 187.648438 262.101563 C 186.898438 262.101563 186.355469 262.269531 185.90625 262.644531 C 185.484375 263.015625 185.273438 263.429688 185.273438 263.972656 C 185.273438 264.382813 185.355469 264.722656 185.484375 264.964844 C 185.648438 265.257813 185.863281 265.460938 186.113281 265.671875 C 186.398438 265.839844 186.730469 266.003906 187.144531 266.179688 C 187.519531 266.300781 188.058594 266.503906 188.644531 266.671875 C 189.226563 266.878906 189.800781 267.085938 190.300781 267.335938 C 190.847656 267.582031 191.261719 267.878906 191.589844 268.167969 M 175.40625 268.769531 C 175.40625 268.761719 175.40625 268.769531 175.40625 268.769531 "/>
</g>
<g clip-path="url(#clip4)" clip-rule="nonzero">
<path style=" stroke:none;fill-rule:nonzero;fill:rgb(17.259216%,17.259216%,16.868591%);fill-opacity:1;" d="M 223.363281 255.914063 C 223.363281 256.453125 223.195313 256.878906 222.859375 257.253906 C 222.535156 257.671875 222.113281 257.839844 221.605469 257.839844 C 221.144531 257.839844 220.722656 257.671875 220.390625 257.296875 C 220.0625 256.917969 219.886719 256.5 219.886719 256.035156 C 219.886719 255.539063 220.0625 255.121094 220.390625 254.742188 C 220.722656 254.367188 221.144531 254.199219 221.605469 254.199219 C 222.113281 254.199219 222.535156 254.367188 222.859375 254.699219 C 223.195313 255.078125 223.363281 255.453125 223.363281 255.914063 M 225.074219 274.667969 L 218.640625 274.667969 L 218.640625 273.785156 C 218.84375 273.785156 219.050781 273.738281 219.257813 273.738281 C 219.472656 273.699219 219.679688 273.664063 219.84375 273.621094 C 220.101563 273.539063 220.265625 273.410156 220.390625 273.199219 C 220.527344 272.992188 220.566406 272.742188 220.566406 272.410156 L 220.566406 264.160156 C 220.566406 263.867188 220.527344 263.613281 220.390625 263.363281 C 220.265625 263.152344 220.0625 262.945313 219.84375 262.78125 C 219.636719 262.652344 219.429688 262.570313 219.101563 262.488281 C 218.753906 262.441406 218.472656 262.359375 218.214844 262.359375 L 218.214844 261.476563 L 222.90625 261.1875 L 223.113281 261.355469 L 223.113281 272.234375 C 223.113281 272.570313 223.15625 272.816406 223.277344 273.035156 C 223.402344 273.242188 223.566406 273.410156 223.867188 273.496094 C 224.03125 273.574219 224.238281 273.621094 224.453125 273.699219 C 224.621094 273.738281 224.824219 273.785156 225.074219 273.785156 Z M 216.964844 268.976563 L 216.542969 274.667969 L 201.554688 274.667969 L 201.554688 273.699219 C 201.773438 273.699219 202.105469 273.664063 202.515625 273.621094 C 202.894531 273.574219 203.1875 273.539063 203.363281 273.449219 C 203.609375 273.324219 203.816406 273.15625 203.949219 272.949219 C 204.066406 272.695313 204.113281 272.410156 204.113281 272.0625 L 204.113281 258.34375 C 204.113281 258.011719 204.066406 257.753906 203.988281 257.503906 C 203.859375 257.296875 203.652344 257.089844 203.363281 256.960938 C 203.15625 256.832031 202.855469 256.75 202.476563 256.625 C 202.105469 256.539063 201.816406 256.453125 201.554688 256.453125 L 201.554688 255.496094 L 209.675781 255.496094 L 209.675781 256.453125 C 209.382813 256.453125 209.089844 256.5 208.675781 256.585938 C 208.300781 256.667969 208.003906 256.75 207.789063 256.792969 C 207.507813 256.917969 207.292969 257.089844 207.175781 257.335938 C 207.078125 257.628906 206.992188 257.882813 206.992188 258.214844 L 206.992188 271.0625 C 206.992188 271.6875 207.042969 272.160156 207.078125 272.488281 C 207.175781 272.777344 207.292969 273.035156 207.507813 273.242188 C 207.714844 273.410156 208.046875 273.496094 208.425781 273.539063 C 208.839844 273.621094 209.425781 273.621094 210.136719 273.621094 L 211.1875 273.621094 C 211.554688 273.574219 211.902344 273.539063 212.234375 273.496094 C 212.53125 273.449219 212.8125 273.367188 213.109375 273.289063 C 213.359375 273.15625 213.566406 273.035156 213.699219 272.90625 C 214.066406 272.488281 214.492188 271.863281 214.988281 271.019531 C 215.453125 270.1875 215.832031 269.515625 215.996094 268.976563 Z M 237.511719 266.5 C 237.429688 266.964844 237.386719 267.421875 237.386719 267.886719 C 237.386719 268.464844 237.429688 268.976563 237.511719 269.515625 Z M 237.511719 254.78125 L 237.511719 256.035156 C 237.46875 256.164063 237.386719 256.289063 237.304688 256.375 C 237.097656 256.667969 236.761719 256.792969 236.304688 256.792969 C 236.050781 256.792969 235.789063 256.75 235.585938 256.625 C 235.371094 256.5 235.160156 256.335938 235.003906 256.164063 C 234.832031 255.957031 234.664063 255.742188 234.492188 255.496094 C 234.324219 255.242188 234.203125 255.035156 234.113281 254.867188 C 233.488281 254.910156 233.035156 255.332031 232.703125 256.128906 C 232.355469 256.960938 232.191406 258.261719 232.191406 260.023438 L 232.191406 261.398438 L 235.628906 261.398438 L 235.628906 262.695313 L 232.191406 262.695313 L 232.191406 272.277344 C 232.191406 272.570313 232.28125 272.863281 232.40625 273.035156 C 232.488281 273.242188 232.703125 273.410156 232.953125 273.496094 C 233.152344 273.574219 233.449219 273.621094 233.828125 273.699219 C 234.203125 273.738281 234.492188 273.785156 234.75 273.785156 L 234.75 274.667969 L 227.714844 274.667969 L 227.714844 273.785156 C 227.921875 273.785156 228.128906 273.738281 228.386719 273.738281 C 228.589844 273.699219 228.757813 273.664063 228.929688 273.621094 C 229.179688 273.539063 229.386719 273.410156 229.519531 273.199219 C 229.644531 272.992188 229.683594 272.742188 229.683594 272.410156 L 229.683594 262.695313 L 227.046875 262.695313 L 227.046875 261.398438 L 229.683594 261.398438 L 229.683594 260.5625 C 229.683594 258.511719 230.230469 256.878906 231.273438 255.617188 C 232.316406 254.367188 233.621094 253.730469 235.203125 253.730469 C 236.007813 253.730469 236.632813 253.910156 237.007813 254.199219 C 237.261719 254.367188 237.386719 254.578125 237.511719 254.78125 M 237.511719 256.035156 L 237.511719 254.78125 C 237.597656 254.949219 237.636719 255.160156 237.636719 255.367188 C 237.636719 255.617188 237.597656 255.832031 237.511719 256.035156 M 243.15625 260.976563 L 243.15625 261.976563 C 242.320313 262.0625 241.660156 262.441406 241.070313 263.152344 C 240.441406 263.949219 240.101563 265.035156 240.066406 266.457031 L 246.214844 266.457031 C 246.214844 265.957031 246.167969 265.410156 246.085938 264.828125 C 246.003906 264.242188 245.867188 263.785156 245.703125 263.40625 C 245.507813 262.988281 245.207031 262.652344 244.835938 262.359375 C 244.492188 262.105469 244 261.976563 243.445313 261.976563 L 243.15625 261.976563 L 243.15625 260.976563 L 243.445313 260.976563 C 244.453125 260.976563 245.289063 261.105469 245.964844 261.4375 C 246.675781 261.726563 247.226563 262.152344 247.683594 262.695313 C 248.09375 263.195313 248.394531 263.785156 248.609375 264.457031 C 248.816406 265.164063 248.890625 265.917969 248.890625 266.710938 L 248.890625 267.589844 L 240.066406 267.589844 C 240.066406 268.464844 240.140625 269.269531 240.316406 269.980469 C 240.484375 270.6875 240.730469 271.316406 241.113281 271.863281 C 241.441406 272.363281 241.90625 272.777344 242.484375 273.070313 C 242.691406 273.199219 242.90625 273.289063 243.15625 273.367188 L 243.15625 275 C 242.320313 274.960938 241.566406 274.789063 240.9375 274.453125 C 240.101563 274.074219 239.433594 273.574219 238.925781 272.90625 C 238.429688 272.277344 238.019531 271.527344 237.757813 270.648438 C 237.636719 270.273438 237.546875 269.894531 237.511719 269.515625 L 237.511719 266.5 C 237.546875 266.128906 237.679688 265.746094 237.800781 265.378906 C 238.058594 264.53125 238.46875 263.785156 239.019531 263.109375 C 239.523438 262.488281 240.140625 261.945313 240.898438 261.566406 C 241.566406 261.226563 242.320313 261.019531 243.15625 260.976563 M 243.15625 275 L 243.15625 273.367188 C 243.578125 273.496094 244 273.539063 244.492188 273.539063 C 245.332031 273.539063 246.003906 273.367188 246.589844 272.992188 C 247.175781 272.613281 247.714844 271.941406 248.269531 270.941406 L 249.230469 271.527344 C 248.644531 272.613281 247.929688 273.449219 246.964844 274.074219 C 246.050781 274.703125 244.960938 275.039063 243.753906 275.039063 C 243.535156 275.039063 243.328125 275.039063 243.15625 275 "/>
</g>
<path style=" stroke:none;fill-rule:nonzero;fill:rgb(84.375%,70.506287%,42.747498%);fill-opacity:1;" d="M 176.984375 97.183594 C 173.292969 99.917969 168.441406 100.328125 164.679688 98.550781 C 164.679688 98.550781 163.65625 98.140625 162.699219 97.046875 C 161.875 96.019531 141.097656 72.574219 141.097656 72.574219 L 141.027344 72.507813 C 147.457031 73.667969 154.496094 70.59375 158.117188 64.988281 C 161.738281 59.65625 161.605469 52.070313 158.1875 46.734375 C 154.085938 40.925781 146.089844 39.011719 139.386719 39.902344 C 127.765625 41.542969 119.429688 51.863281 116.832031 62.664063 C 114.164063 74.96875 116.078125 86.589844 120.253906 97.523438 C 121.207031 99.851563 122.507813 102.242188 124.078125 104.289063 C 111.84375 98.960938 101.039063 89.117188 95.371094 75.925781 C 89.078125 61.707031 89.214844 43.730469 96.667969 29.308594 C 102.546875 18.164063 112.9375 7.84375 125.785156 3.46875 C 139.253906 -2.066406 157.367188 -0.90625 170.492188 6.476563 C 186.417969 14.40625 198.449219 34.164063 198.515625 51.796875 C 199.0625 70.046875 190.996094 86.589844 176.984375 97.183594 "/>
<path style=" stroke:none;fill-rule:nonzero;fill:rgb(84.375%,70.506287%,42.747498%);fill-opacity:1;" d="M 132.277344 104.085938 C 126.335938 97.660156 121.546875 89.324219 125.171875 80.644531 C 128.382813 74.011719 131.257813 67.242188 132.621094 59.585938 C 133.167969 67.585938 138.023438 74.695313 140.347656 82.351563 C 141.234375 86.042969 141.304688 89.871094 139.867188 93.695313 C 138.296875 97.867188 135.765625 101.421875 132.757813 104.632813 "/>
<g clip-path="url(#clip5)" clip-rule="nonzero">
<path style=" stroke:none;fill-rule:nonzero;fill:rgb(17.259216%,17.259216%,16.868591%);fill-opacity:1;" d="M 306.234375 151.125 C 306.234375 149.570313 306.105469 147.914063 305.835938 146.148438 C 305.566406 144.378906 305.15625 142.90625 304.578125 141.71875 C 303.941406 140.445313 303.066406 139.414063 301.964844 138.605469 C 300.855469 137.800781 299.429688 137.402344 297.6875 137.402344 C 294.789063 137.402344 292.382813 138.605469 290.460938 141.027344 C 288.535156 143.445313 287.503906 146.8125 287.332031 151.125 Z M 315.386719 166.699219 C 313.675781 169.972656 311.382813 172.558594 308.511719 174.496094 C 305.640625 176.433594 302.328125 177.394531 298.609375 177.394531 C 295.3125 177.394531 292.441406 176.816406 289.964844 175.65625 C 287.488281 174.496094 285.449219 172.925781 283.851563 170.929688 C 282.253906 168.945313 281.054688 166.617188 280.257813 163.96875 C 279.480469 161.308594 279.085938 158.511719 279.085938 155.554688 C 279.085938 152.90625 279.507813 150.304688 280.34375 147.746094 C 281.195313 145.183594 282.425781 142.894531 284.066406 140.839844 C 285.636719 138.886719 287.589844 137.304688 289.921875 136.101563 C 292.257813 134.898438 294.875 134.292969 297.773438 134.292969 C 300.757813 134.292969 303.316406 134.757813 305.4375 135.707031 C 307.578125 136.636719 309.304688 137.925781 310.617188 139.550781 C 311.890625 141.109375 312.839844 142.933594 313.460938 145.027344 C 314.085938 147.136719 314.394531 149.414063 314.394531 151.859375 L 314.394531 154.605469 L 287.332031 154.605469 C 287.332031 157.277344 287.589844 159.714844 288.097656 161.890625 C 288.605469 164.085938 289.414063 165.996094 290.53125 167.664063 C 291.605469 169.261719 293.007813 170.523438 294.746094 171.453125 C 296.484375 172.371094 298.566406 172.839844 300.972656 172.839844 C 303.433594 172.839844 305.554688 172.261719 307.335938 171.113281 C 309.101563 169.972656 310.832031 167.902344 312.484375 164.917969 Z M 259.4375 177.394531 C 253.523438 177.394531 248.898438 175.429688 245.546875 171.511719 C 242.203125 167.59375 240.535156 162.328125 240.535156 155.722656 C 240.535156 152.851563 240.992188 150.164063 241.878906 147.660156 C 242.785156 145.15625 244.085938 142.894531 245.796875 140.839844 C 247.425781 138.886719 249.472656 137.304688 251.9375 136.101563 C 254.386719 134.898438 257.074219 134.292969 259.972656 134.292969 C 263.976563 134.292969 267.246094 135.253906 269.75 137.179688 C 272.269531 139.101563 273.527344 141.71875 273.527344 145.027344 C 273.527344 146.414063 273.199219 147.632813 272.535156 148.691406 C 271.871094 149.765625 270.78125 150.296875 269.253906 150.296875 C 267.628906 150.296875 266.367188 149.878906 265.460938 149.046875 C 264.570313 148.226563 264.117188 147.292969 264.117188 146.273438 C 264.117188 145.027344 264.289063 143.757813 264.613281 142.441406 C 264.953125 141.125 265.136719 140.164063 265.191406 139.550781 C 264.699219 138.703125 263.960938 138.125 262.972656 137.84375 C 262 137.542969 260.9375 137.402344 259.800781 137.402344 C 258.488281 137.402344 257.214844 137.6875 256.011719 138.25 C 254.808594 138.820313 253.648438 139.867188 252.515625 141.378906 C 251.484375 142.765625 250.667969 144.632813 250.027344 146.980469 C 249.394531 149.328125 249.066406 152.128906 249.066406 155.386719 C 249.066406 160.53125 250.210938 164.71875 252.492188 167.972656 C 254.765625 171.214844 257.769531 172.839844 261.460938 172.839844 C 264.144531 172.839844 266.394531 172.191406 268.210938 170.890625 C 270.003906 169.585938 271.6875 167.648438 273.230469 165.046875 L 275.890625 166.78125 C 274.066406 170.054688 271.660156 172.628906 268.675781 174.539063 C 265.6875 176.449219 262.605469 177.394531 259.4375 177.394531 M 235.515625 176.320313 L 215.496094 176.320313 L 215.496094 173.59375 C 216.132813 173.535156 216.839844 173.476563 217.589844 173.421875 C 218.355469 173.363281 218.972656 173.25 219.484375 173.082031 C 220.25 172.839844 220.828125 172.402344 221.195313 171.78125 C 221.578125 171.15625 221.761719 170.355469 221.761719 169.359375 L 221.761719 148.339844 C 221.761719 145.441406 221.070313 143.203125 219.710938 141.632813 C 218.339844 140.0625 216.671875 139.269531 214.71875 139.269531 C 213.25 139.269531 211.902344 139.496094 210.6875 139.949219 C 209.484375 140.402344 208.394531 140.96875 207.460938 141.632813 C 206.554688 142.273438 205.820313 142.949219 205.28125 143.6875 C 204.746094 144.417969 204.347656 145 204.109375 145.441406 L 204.109375 168.945313 C 204.109375 169.882813 204.292969 170.664063 204.691406 171.273438 C 205.070313 171.875 205.648438 172.347656 206.425781 172.671875 C 207.007813 172.957031 207.628906 173.152344 208.308594 173.292969 C 208.988281 173.433594 209.683594 173.535156 210.402344 173.59375 L 210.402344 176.320313 L 190.386719 176.320313 L 190.386719 173.59375 C 191.019531 173.535156 191.671875 173.476563 192.351563 173.421875 C 193.03125 173.363281 193.613281 173.25 194.121094 173.082031 C 194.882813 172.839844 195.464844 172.402344 195.835938 171.78125 C 196.214844 171.15625 196.398438 170.355469 196.398438 169.359375 L 196.398438 144.121094 C 196.398438 143.175781 196.199219 142.3125 195.789063 141.535156 C 195.394531 140.742188 194.828125 140.09375 194.121094 139.597656 C 193.597656 139.269531 192.972656 139.027344 192.253906 138.875 C 191.53125 138.71875 190.753906 138.621094 189.933594 138.566406 L 189.933594 135.875 L 203.527344 134.957031 L 204.109375 135.535156 L 204.109375 141.292969 L 204.304688 141.292969 C 204.972656 140.644531 205.804688 139.835938 206.792969 138.917969 C 207.789063 138 208.734375 137.234375 209.613281 136.652344 C 210.644531 135.988281 211.863281 135.4375 213.261719 134.996094 C 214.675781 134.558594 216.261719 134.332031 218.027344 134.332031 C 221.945313 134.332031 224.859375 135.566406 226.753906 138 C 228.652344 140.445313 229.585938 143.699219 229.585938 147.761719 L 229.585938 169.023438 C 229.585938 169.996094 229.757813 170.777344 230.097656 171.371094 C 230.421875 171.964844 230.984375 172.429688 231.796875 172.757813 C 232.457031 173.039063 233.023438 173.226563 233.503906 173.335938 C 233.988281 173.445313 234.664063 173.535156 235.515625 173.59375 Z M 171.867188 153.683594 C 169.519531 154.378906 167.453125 155.058594 165.683594 155.722656 C 163.914063 156.390625 162.277344 157.207031 160.761719 158.214844 C 159.378906 159.148438 158.289063 160.265625 157.480469 161.550781 C 156.6875 162.824219 156.277344 164.351563 156.277344 166.121094 C 156.277344 168.414063 156.886719 170.109375 158.089844 171.183594 C 159.292969 172.261719 160.820313 172.800781 162.65625 172.800781 C 164.625 172.800781 166.351563 172.316406 167.847656 171.371094 C 169.335938 170.425781 170.59375 169.289063 171.609375 167.988281 Z M 186.324219 175.570313 C 185.023438 176.039063 183.890625 176.417969 182.917969 176.71875 C 181.925781 177 180.824219 177.15625 179.578125 177.15625 C 177.414063 177.15625 175.703125 176.644531 174.414063 175.640625 C 173.128906 174.625 172.308594 173.152344 171.953125 171.230469 L 171.699219 171.230469 C 169.902344 173.210938 167.976563 174.734375 165.914063 175.785156 C 163.859375 176.828125 161.382813 177.355469 158.484375 177.355469 C 155.414063 177.355469 152.898438 176.417969 150.917969 174.539063 C 148.933594 172.65625 147.945313 170.195313 147.945313 167.171875 C 147.945313 165.585938 148.171875 164.183594 148.609375 162.941406 C 149.0625 161.695313 149.714844 160.574219 150.605469 159.570313 C 151.296875 158.75 152.203125 158.015625 153.335938 157.363281 C 154.46875 156.714844 155.542969 156.191406 156.53125 155.808594 C 157.777344 155.34375 160.296875 154.46875 164.089844 153.191406 C 167.890625 151.917969 170.453125 150.925781 171.78125 150.203125 L 171.78125 146.105469 C 171.78125 145.75 171.710938 145.058594 171.554688 144.039063 C 171.402344 143.023438 171.074219 142.042969 170.582031 141.136719 C 170.027344 140.105469 169.25 139.214844 168.230469 138.464844 C 167.230469 137.699219 165.796875 137.320313 163.945313 137.320313 C 162.671875 137.320313 161.496094 137.53125 160.40625 137.96875 C 159.316406 138.394531 158.542969 138.847656 158.105469 139.316406 C 158.105469 139.867188 158.230469 140.671875 158.5 141.761719 C 158.769531 142.835938 158.894531 143.824219 158.894531 144.746094 C 158.894531 145.707031 158.457031 146.585938 157.59375 147.390625 C 156.714844 148.195313 155.515625 148.59375 153.957031 148.59375 C 152.585938 148.59375 151.566406 148.097656 150.917969 147.121094 C 150.265625 146.148438 149.941406 145.042969 149.941406 143.824219 C 149.941406 142.550781 150.394531 141.335938 151.285156 140.175781 C 152.191406 139.015625 153.351563 137.980469 154.792969 137.078125 C 156.039063 136.296875 157.535156 135.648438 159.304688 135.097656 C 161.074219 134.558594 162.800781 134.292969 164.484375 134.292969 C 166.804688 134.292969 168.828125 134.460938 170.570313 134.773438 C 172.289063 135.082031 173.847656 135.777344 175.261719 136.824219 C 176.675781 137.84375 177.738281 139.230469 178.476563 140.984375 C 179.210938 142.738281 179.578125 145 179.578125 147.761719 C 179.578125 151.71875 179.535156 155.21875 179.449219 158.269531 C 179.367188 161.324219 179.324219 164.664063 179.324219 168.289063 C 179.324219 169.359375 179.503906 170.207031 179.890625 170.847656 C 180.257813 171.484375 180.835938 172.023438 181.597656 172.472656 C 182.027344 172.714844 182.679688 172.855469 183.566406 172.882813 C 184.472656 172.910156 185.390625 172.925781 186.324219 172.925781 Z M 137.4375 119.328125 C 137.4375 120.882813 136.933594 122.246094 135.898438 123.40625 C 134.871094 124.570313 133.609375 125.164063 132.09375 125.164063 C 130.703125 125.164063 129.484375 124.601563 128.460938 123.492188 C 127.4375 122.382813 126.914063 121.105469 126.914063 119.691406 C 126.914063 118.175781 127.4375 116.871094 128.460938 115.75 C 129.484375 114.625 130.703125 114.066406 132.09375 114.066406 C 133.664063 114.066406 134.941406 114.585938 135.9375 115.640625 C 136.933594 116.703125 137.4375 117.921875 137.4375 119.328125 M 142.613281 176.320313 L 123.019531 176.320313 L 123.019531 173.609375 C 123.648438 173.558594 124.292969 173.503906 124.96875 173.445313 C 125.644531 173.390625 126.21875 173.277344 126.707031 173.109375 C 127.480469 172.867188 128.054688 172.4375 128.417969 171.820313 C 128.78125 171.199219 128.984375 170.398438 128.984375 169.417969 L 128.984375 144.394531 C 128.984375 143.511719 128.769531 142.707031 128.378906 141.980469 C 127.984375 141.25 127.425781 140.648438 126.707031 140.15625 C 126.191406 139.820313 125.445313 139.539063 124.453125 139.316406 C 123.464844 139.074219 122.570313 138.9375 121.742188 138.882813 L 121.742188 136.214844 L 136.050781 135.304688 L 136.625 135.882813 L 136.625 168.929688 C 136.625 169.882813 136.808594 170.679688 137.171875 171.3125 C 137.535156 171.929688 138.125 172.40625 138.925781 172.703125 C 139.527344 172.957031 140.121094 173.152344 140.691406 173.304688 C 141.269531 173.445313 141.898438 173.558594 142.613281 173.609375 Z M 117.886719 176.320313 L 98.636719 176.320313 L 98.636719 173.683594 C 99.253906 173.632813 99.910156 173.5625 100.605469 173.496094 C 101.304688 173.441406 101.878906 173.328125 102.328125 173.191406 C 103.078125 172.964844 103.636719 172.535156 104.007813 171.9375 C 104.375 171.335938 104.582031 170.554688 104.566406 169.601563 L 103.941406 125.960938 C 103.933594 125.464844 103.71875 124.042969 103.460938 123.0625 C 103.339844 122.613281 103.214844 122.257813 103.09375 122.121094 C 102.964844 121.972656 102.921875 121.824219 102.742188 121.664063 C 102.054688 121.046875 102.910156 121.902344 102.265625 121.332031 C 101.839844 120.949219 102.441406 121.1875 101.160156 120.925781 C 99.894531 120.660156 97.773438 121.25 96.992188 121.191406 L 96.921875 118.320313 L 111.273438 117.535156 L 111.957031 118.121094 L 112.011719 169.121094 C 112.011719 170.054688 112.183594 170.816406 112.527344 171.417969 C 112.875 172.015625 113.433594 172.484375 114.210938 172.796875 C 114.796875 173.070313 115.371094 173.261719 115.945313 173.398438 C 116.519531 173.535156 117.175781 173.632813 117.886719 173.683594 Z M 85.628906 151.125 C 85.628906 149.570313 85.503906 147.914063 85.234375 146.148438 C 84.964844 144.378906 84.554688 142.90625 83.976563 141.71875 C 83.335938 140.445313 82.460938 139.414063 81.355469 138.605469 C 80.253906 137.800781 78.824219 137.402344 77.085938 137.402344 C 74.183594 137.402344 71.777344 138.605469 69.855469 141.027344 C 67.929688 143.445313 66.898438 146.8125 66.730469 151.125 Z M 94.78125 166.699219 C 93.070313 169.972656 90.777344 172.558594 87.910156 174.496094 C 85.035156 176.433594 81.726563 177.394531 78.003906 177.394531 C 74.707031 177.394531 71.835938 176.816406 69.359375 175.65625 C 66.882813 174.496094 64.847656 172.925781 63.25 170.929688 C 61.652344 168.945313 60.449219 166.617188 59.65625 163.96875 C 58.878906 161.308594 58.484375 158.511719 58.484375 155.554688 C 58.484375 152.90625 58.90625 150.304688 59.738281 147.746094 C 60.589844 145.183594 61.820313 142.894531 63.460938 140.839844 C 65.03125 138.886719 66.984375 137.304688 69.320313 136.101563 C 71.652344 134.898438 74.273438 134.292969 77.167969 134.292969 C 80.15625 134.292969 82.714844 134.757813 84.839844 135.707031 C 86.976563 136.636719 88.699219 137.925781 90.015625 139.550781 C 91.285156 141.109375 92.234375 142.933594 92.859375 145.027344 C 93.480469 147.136719 93.792969 149.414063 93.792969 151.859375 L 93.792969 154.605469 L 66.730469 154.605469 C 66.730469 157.277344 66.984375 159.714844 67.492188 161.890625 C 68 164.085938 68.8125 165.996094 69.925781 167.664063 C 71.003906 169.261719 72.402344 170.523438 74.140625 171.453125 C 75.882813 172.371094 77.960938 172.839844 80.367188 172.839844 C 82.828125 172.839844 84.949219 172.261719 86.734375 171.113281 C 88.503906 169.972656 90.226563 167.902344 91.882813 164.917969 Z M 35.476563 132.464844 C 35.476563 128.902344 34.457031 126.085938 32.410156 123.988281 C 30.371094 121.914063 27.472656 120.867188 23.753906 120.867188 L 16.707031 120.867188 L 16.707031 146.105469 L 22.140625 146.105469 C 25.941406 146.105469 29.128906 144.890625 31.65625 142.441406 C 34.207031 139.992188 35.476563 136.667969 35.476563 132.464844 M 57.28125 176.320313 L 41.449219 176.320313 C 37.941406 170.820313 34.773438 166.066406 31.929688 162.058594 C 29.101563 158.058594 26.027344 153.925781 22.71875 149.671875 L 16.707031 149.671875 L 16.707031 168.328125 C 16.707031 169.289063 16.859375 170.136719 17.160156 170.875 C 17.457031 171.59375 18.105469 172.164063 19.109375 172.542969 C 19.605469 172.742188 20.46875 172.925781 21.714844 173.082031 C 22.960938 173.25 24.007813 173.351563 24.871094 173.378906 L 24.871094 176.320313 L 0 176.320313 L 0 173.378906 C 0.664063 173.320313 1.628906 173.226563 2.886719 173.082031 C 4.144531 172.957031 5.023438 172.769531 5.515625 172.542969 C 6.335938 172.191406 6.945313 171.667969 7.316406 170.976563 C 7.695313 170.277344 7.878906 169.402344 7.878906 168.328125 L 7.878906 125.800781 C 7.878906 124.828125 7.738281 123.980469 7.453125 123.230469 C 7.1875 122.480469 6.535156 121.914063 5.515625 121.527344 C 4.824219 121.277344 3.917969 121.050781 2.8125 120.851563 C 1.710938 120.640625 0.777344 120.511719 0 120.457031 L 0 117.511719 L 27.148438 117.511719 C 29.636719 117.511719 31.96875 117.769531 34.148438 118.277344 C 36.328125 118.789063 38.308594 119.605469 40.078125 120.734375 C 41.789063 121.84375 43.164063 123.285156 44.179688 125.066406 C 45.199219 126.851563 45.722656 129 45.722656 131.519531 C 45.722656 133.78125 45.367188 135.792969 44.675781 137.53125 C 43.980469 139.269531 42.964844 140.769531 41.617188 142.042969 C 40.375 143.230469 38.875 144.265625 37.136719 145.128906 C 35.394531 146.003906 33.46875 146.742188 31.378906 147.347656 C 34.277344 151.195313 36.683594 154.425781 38.605469 157.054688 C 40.53125 159.671875 42.878906 162.867188 45.679688 166.617188 C 46.894531 168.289063 47.984375 169.503906 48.976563 170.296875 C 49.953125 171.070313 50.925781 171.722656 51.890625 172.21875 C 52.613281 172.570313 53.503906 172.855469 54.589844 173.054688 C 55.664063 173.238281 56.558594 173.351563 57.28125 173.378906 "/>
</g>
<path style=" stroke:none;fill-rule:nonzero;fill:rgb(17.259216%,17.259216%,16.868591%);fill-opacity:1;" d="M 11.527344 228.136719 L 0.0117188 228.136719 L 0.0117188 226.921875 C 0.339844 226.898438 0.804688 226.867188 1.425781 226.816406 C 2.035156 226.777344 2.46875 226.710938 2.71875 226.613281 C 3.113281 226.46875 3.398438 226.265625 3.585938 226.011719 C 3.765625 225.75 3.851563 225.394531 3.851563 224.945313 L 3.851563 207.378906 C 3.851563 206.984375 3.789063 206.652344 3.652344 206.382813 C 3.523438 206.117188 3.210938 205.894531 2.71875 205.707031 C 2.355469 205.574219 1.90625 205.445313 1.359375 205.324219 C 0.8125 205.207031 0.363281 205.136719 0.0117188 205.113281 L 0.0117188 203.898438 L 11.527344 203.898438 L 11.527344 205.113281 C 11.152344 205.125 10.710938 205.164063 10.191406 205.242188 C 9.675781 205.3125 9.230469 205.410156 8.839844 205.523438 C 8.386719 205.660156 8.078125 205.882813 7.925781 206.1875 C 7.765625 206.496094 7.691406 206.839844 7.691406 207.210938 L 7.691406 224.753906 C 7.691406 225.125 7.773438 225.460938 7.949219 225.75 C 8.121094 226.042969 8.421875 226.277344 8.839844 226.445313 C 9.09375 226.539063 9.503906 226.636719 10.078125 226.742188 C 10.644531 226.855469 11.128906 226.910156 11.527344 226.921875 "/>
<path style=" stroke:none;fill-rule:nonzero;fill:rgb(17.259216%,17.259216%,16.868591%);fill-opacity:1;" d="M 34.757813 228.136719 L 26.058594 228.136719 L 26.058594 227.011719 C 26.335938 226.988281 26.644531 226.964844 26.972656 226.9375 C 27.304688 226.917969 27.574219 226.871094 27.796875 226.800781 C 28.125 226.703125 28.378906 226.523438 28.539063 226.265625 C 28.707031 226.011719 28.785156 225.675781 28.785156 225.269531 L 28.785156 216.601563 C 28.785156 215.40625 28.484375 214.488281 27.894531 213.839844 C 27.296875 213.195313 26.574219 212.867188 25.722656 212.867188 C 25.082031 212.867188 24.5 212.960938 23.96875 213.144531 C 23.449219 213.332031 22.976563 213.566406 22.570313 213.839844 C 22.175781 214.105469 21.855469 214.382813 21.625 214.6875 C 21.390625 214.988281 21.214844 215.230469 21.113281 215.40625 L 21.113281 225.097656 C 21.113281 225.484375 21.195313 225.804688 21.363281 226.058594 C 21.53125 226.304688 21.78125 226.5 22.121094 226.632813 C 22.371094 226.75 22.644531 226.832031 22.9375 226.886719 C 23.234375 226.945313 23.539063 226.988281 23.847656 227.011719 L 23.847656 228.136719 L 15.152344 228.136719 L 15.152344 227.011719 C 15.425781 226.988281 15.710938 226.964844 16.007813 226.9375 C 16.300781 226.917969 16.554688 226.871094 16.773438 226.800781 C 17.109375 226.703125 17.359375 226.523438 17.519531 226.265625 C 17.683594 226.011719 17.765625 225.675781 17.765625 225.269531 L 17.765625 214.867188 C 17.765625 214.476563 17.679688 214.121094 17.5 213.796875 C 17.328125 213.472656 17.082031 213.207031 16.773438 213 C 16.546875 212.867188 16.277344 212.765625 15.964844 212.703125 C 15.648438 212.640625 15.3125 212.597656 14.957031 212.574219 L 14.957031 211.46875 L 20.863281 211.089844 L 21.113281 211.328125 L 21.113281 213.699219 L 21.199219 213.699219 C 21.484375 213.433594 21.851563 213.097656 22.28125 212.722656 C 22.710938 212.34375 23.121094 212.027344 23.503906 211.789063 C 23.953125 211.511719 24.480469 211.289063 25.089844 211.109375 C 25.707031 210.925781 26.394531 210.832031 27.160156 210.832031 C 28.863281 210.832031 30.132813 211.339844 30.953125 212.34375 C 31.777344 213.351563 32.183594 214.691406 32.183594 216.367188 L 32.183594 225.125 C 32.183594 225.53125 32.257813 225.847656 32.40625 226.09375 C 32.546875 226.339844 32.792969 226.535156 33.140625 226.667969 C 33.429688 226.785156 33.675781 226.859375 33.886719 226.90625 C 34.097656 226.953125 34.390625 226.988281 34.757813 227.011719 "/>
<path style=" stroke:none;fill-rule:nonzero;fill:rgb(17.259216%,17.259216%,16.868591%);fill-opacity:1;" d="M 50.777344 224.871094 L 50.777344 215.019531 C 50.683594 214.722656 50.527344 214.40625 50.308594 214.0625 C 50.09375 213.71875 49.824219 213.410156 49.496094 213.121094 C 49.152344 212.839844 48.742188 212.597656 48.273438 212.414063 C 47.804688 212.226563 47.257813 212.132813 46.640625 212.132813 C 45.914063 212.132813 45.25 212.308594 44.648438 212.664063 C 44.039063 213.011719 43.503906 213.519531 43.039063 214.183594 C 42.585938 214.820313 42.238281 215.628906 41.980469 216.617188 C 41.722656 217.601563 41.59375 218.691406 41.59375 219.886719 C 41.59375 220.84375 41.691406 221.710938 41.882813 222.492188 C 42.074219 223.277344 42.398438 223.996094 42.851563 224.667969 C 43.277344 225.308594 43.8125 225.820313 44.46875 226.207031 C 45.121094 226.59375 45.894531 226.789063 46.800781 226.789063 C 47.757813 226.789063 48.554688 226.585938 49.183594 226.1875 C 49.820313 225.792969 50.34375 225.347656 50.777344 224.871094 M 57.277344 227.828125 L 51.082031 228.207031 L 50.8125 227.96875 L 50.8125 226.390625 L 50.671875 226.359375 C 50.042969 227.023438 49.277344 227.558594 48.351563 227.984375 C 47.4375 228.40625 46.492188 228.617188 45.519531 228.617188 C 44.511719 228.617188 43.535156 228.402344 42.59375 227.972656 C 41.65625 227.546875 40.832031 226.945313 40.132813 226.171875 C 39.429688 225.382813 38.863281 224.441406 38.453125 223.335938 C 38.039063 222.230469 37.832031 221.011719 37.832031 219.683594 C 37.832031 218.464844 38.050781 217.3125 38.496094 216.214844 C 38.945313 215.125 39.550781 214.167969 40.332031 213.34375 C 41.066406 212.578125 41.960938 211.976563 43.027344 211.511719 C 44.089844 211.058594 45.167969 210.832031 46.277344 210.832031 C 47.105469 210.832031 47.917969 210.933594 48.714844 211.132813 C 49.515625 211.332031 50.203125 211.585938 50.777344 211.894531 L 50.777344 206.035156 C 50.777344 205.558594 50.695313 205.117188 50.527344 204.730469 C 50.359375 204.332031 50.125 204.03125 49.824219 203.832031 C 49.484375 203.613281 49.035156 203.457031 48.464844 203.359375 C 47.894531 203.265625 47.277344 203.199219 46.621094 203.148438 L 46.621094 202.089844 L 53.875 201.695313 L 54.144531 201.957031 L 54.144531 224.667969 C 54.144531 225.070313 54.222656 225.40625 54.390625 225.6875 C 54.546875 225.960938 54.789063 226.203125 55.101563 226.390625 C 55.332031 226.535156 55.65625 226.613281 56.09375 226.652344 C 56.523438 226.683594 56.914063 226.710938 57.277344 226.71875 "/>
<path style=" stroke:none;fill-rule:nonzero;fill:rgb(17.259216%,17.259216%,16.868591%);fill-opacity:1;" d="M 78.929688 227.828125 L 73.148438 228.207031 L 72.875 227.96875 L 72.875 225.824219 L 72.773438 225.824219 C 72.484375 226.113281 72.15625 226.421875 71.796875 226.742188 C 71.441406 227.070313 71.019531 227.359375 70.554688 227.625 C 70.011719 227.929688 69.492188 228.167969 68.988281 228.324219 C 68.484375 228.484375 67.769531 228.5625 66.847656 228.5625 C 65.273438 228.5625 64.074219 228.078125 63.253906 227.105469 C 62.433594 226.132813 62.023438 224.714844 62.023438 222.859375 L 62.023438 214.796875 C 62.023438 214.386719 61.9375 214.046875 61.777344 213.765625 C 61.617188 213.488281 61.378906 213.242188 61.0625 213.039063 C 60.847656 212.902344 60.578125 212.804688 60.261719 212.742188 C 59.929688 212.675781 59.589844 212.632813 59.230469 212.609375 L 59.230469 211.496094 L 65.152344 211.089844 L 65.421875 211.328125 L 65.421875 223.027344 C 65.421875 224.25 65.710938 225.164063 66.289063 225.78125 C 66.867188 226.394531 67.554688 226.703125 68.359375 226.703125 C 69.015625 226.703125 69.609375 226.601563 70.121094 226.410156 C 70.636719 226.21875 71.070313 225.992188 71.421875 225.730469 C 71.746094 225.492188 72.027344 225.234375 72.277344 224.972656 C 72.523438 224.703125 72.710938 224.453125 72.839844 224.226563 L 72.839844 214.675781 C 72.839844 214.300781 72.761719 213.96875 72.585938 213.679688 C 72.425781 213.386719 72.191406 213.140625 71.886719 212.9375 C 71.675781 212.796875 71.351563 212.714844 70.925781 212.6875 C 70.496094 212.65625 70.019531 212.632813 69.492188 212.609375 L 69.492188 211.496094 L 75.941406 211.089844 L 76.207031 211.328125 L 76.207031 224.703125 C 76.207031 225.09375 76.296875 225.417969 76.460938 225.691406 C 76.632813 225.96875 76.867188 226.203125 77.167969 226.394531 C 77.382813 226.523438 77.640625 226.601563 77.9375 226.644531 C 78.234375 226.679688 78.566406 226.710938 78.929688 226.71875 "/>
<path style=" stroke:none;fill-rule:nonzero;fill:rgb(17.259216%,17.259216%,16.868591%);fill-opacity:1;" d="M 93.71875 219.886719 C 94.210938 220.292969 94.59375 220.765625 94.855469 221.300781 C 95.121094 221.839844 95.25 222.492188 95.25 223.269531 C 95.25 224.832031 94.632813 226.101563 93.402344 227.09375 C 92.175781 228.085938 90.578125 228.578125 88.625 228.578125 C 87.59375 228.578125 86.636719 228.40625 85.769531 228.046875 C 84.898438 227.699219 84.277344 227.375 83.902344 227.078125 L 83.546875 228.1875 L 82.195313 228.1875 L 82.015625 222.328125 L 83.257813 222.328125 C 83.355469 222.773438 83.558594 223.292969 83.871094 223.878906 C 84.179688 224.476563 84.5625 225.011719 85 225.492188 C 85.46875 225.992188 86.035156 226.410156 86.6875 226.753906 C 87.34375 227.09375 88.078125 227.269531 88.894531 227.269531 C 90.050781 227.269531 90.933594 227.015625 91.5625 226.523438 C 92.183594 226.027344 92.496094 225.320313 92.496094 224.394531 C 92.496094 223.917969 92.398438 223.507813 92.203125 223.160156 C 91.996094 222.808594 91.707031 222.507813 91.328125 222.242188 C 90.929688 221.980469 90.441406 221.746094 89.863281 221.535156 C 89.285156 221.328125 88.648438 221.117188 87.941406 220.914063 C 87.375 220.746094 86.75 220.535156 86.058594 220.253906 C 85.363281 219.972656 84.777344 219.648438 84.28125 219.269531 C 83.753906 218.871094 83.324219 218.382813 82.984375 217.804688 C 82.648438 217.222656 82.484375 216.539063 82.484375 215.753906 C 82.484375 214.375 83.027344 213.207031 84.105469 212.25 C 85.1875 211.292969 86.632813 210.8125 88.445313 210.8125 C 89.136719 210.8125 89.851563 210.902344 90.578125 211.074219 C 91.304688 211.246094 91.894531 211.449219 92.351563 211.691406 L 92.765625 210.796875 L 94.0625 210.796875 L 94.332031 216.214844 L 93.09375 216.214844 C 92.839844 215.007813 92.292969 214.03125 91.457031 213.269531 C 90.628906 212.511719 89.605469 212.132813 88.410156 212.132813 C 87.425781 212.132813 86.652344 212.367188 86.085938 212.832031 C 85.519531 213.296875 85.234375 213.863281 85.234375 214.523438 C 85.234375 215.035156 85.328125 215.460938 85.519531 215.804688 C 85.707031 216.140625 85.980469 216.4375 86.355469 216.671875 C 86.71875 216.902344 87.164063 217.117188 87.714844 217.316406 C 88.261719 217.515625 88.9375 217.742188 89.742188 217.992188 C 90.535156 218.230469 91.277344 218.511719 91.976563 218.828125 C 92.6875 219.148438 93.265625 219.5 93.71875 219.886719 "/>
<path style=" stroke:none;fill-rule:nonzero;fill:rgb(17.259216%,17.259216%,16.868591%);fill-opacity:1;" d="M 109.792969 227.402344 C 109.007813 227.710938 108.269531 227.96875 107.578125 228.175781 C 106.875 228.386719 106.03125 228.5 105.019531 228.5 C 103.53125 228.5 102.484375 228.136719 101.882813 227.425781 C 101.269531 226.714844 100.96875 225.714844 100.96875 224.410156 L 100.96875 213 L 97.761719 213 L 97.761719 211.363281 L 101.039063 211.363281 L 101.039063 206.121094 L 104.320313 206.121094 L 104.320313 211.363281 L 109.414063 211.363281 L 109.414063 213 L 104.351563 213 L 104.351563 222.417969 C 104.351563 223.121094 104.378906 223.710938 104.4375 224.183594 C 104.484375 224.652344 104.617188 225.070313 104.824219 225.417969 C 105.015625 225.75 105.304688 226.003906 105.683594 226.171875 C 106.070313 226.339844 106.589844 226.425781 107.234375 226.425781 C 107.535156 226.425781 107.976563 226.402344 108.554688 226.351563 C 109.140625 226.296875 109.550781 226.234375 109.792969 226.15625 "/>
<path style=" stroke:none;fill-rule:nonzero;fill:rgb(17.259216%,17.259216%,16.868591%);fill-opacity:1;" d="M 126.039063 213.464844 C 126.039063 214.046875 125.886719 214.558594 125.59375 215.011719 C 125.289063 215.460938 124.828125 215.683594 124.203125 215.683594 C 123.53125 215.683594 123.015625 215.519531 122.667969 215.1875 C 122.308594 214.859375 122.132813 214.496094 122.132813 214.097656 C 122.132813 213.847656 122.15625 213.617188 122.195313 213.417969 C 122.238281 213.207031 122.277344 213 122.308594 212.796875 C 121.75 212.796875 121.089844 213.011719 120.332031 213.445313 C 119.574219 213.882813 118.9375 214.496094 118.40625 215.292969 L 118.40625 225.097656 C 118.40625 225.496094 118.484375 225.820313 118.644531 226.070313 C 118.8125 226.316406 119.0625 226.511719 119.414063 226.632813 C 119.714844 226.75 120.101563 226.832031 120.578125 226.886719 C 121.050781 226.945313 121.460938 226.988281 121.804688 227.011719 L 121.804688 228.136719 L 112.445313 228.136719 L 112.445313 227.011719 C 112.722656 226.988281 113.003906 226.964844 113.296875 226.9375 C 113.59375 226.917969 113.84375 226.871094 114.066406 226.800781 C 114.398438 226.703125 114.652344 226.523438 114.8125 226.265625 C 114.976563 226.011719 115.058594 225.675781 115.058594 225.269531 L 115.058594 214.867188 C 115.058594 214.511719 114.972656 214.167969 114.792969 213.820313 C 114.617188 213.480469 114.375 213.207031 114.066406 213 C 113.839844 212.867188 113.566406 212.765625 113.257813 212.703125 C 112.945313 212.640625 112.605469 212.597656 112.246094 212.574219 L 112.246094 211.46875 L 118.15625 211.089844 L 118.40625 211.328125 L 118.40625 213.699219 L 118.492188 213.699219 C 119.234375 212.777344 120.066406 212.078125 120.984375 211.601563 C 121.890625 211.125 122.726563 210.882813 123.484375 210.882813 C 124.238281 210.882813 124.855469 211.121094 125.328125 211.585938 C 125.800781 212.050781 126.039063 212.679688 126.039063 213.464844 "/>
<path style=" stroke:none;fill-rule:nonzero;fill:rgb(17.259216%,17.259216%,16.868591%);fill-opacity:1;" d="M 134.800781 204.449219 C 134.800781 205.09375 134.578125 205.660156 134.121094 206.144531 C 133.675781 206.628906 133.121094 206.875 132.453125 206.875 C 131.847656 206.875 131.3125 206.640625 130.863281 206.179688 C 130.417969 205.71875 130.191406 205.1875 130.191406 204.597656 C 130.191406 203.972656 130.417969 203.429688 130.863281 202.960938 C 131.3125 202.492188 131.847656 202.261719 132.453125 202.261719 C 133.144531 202.261719 133.703125 202.480469 134.140625 202.914063 C 134.578125 203.359375 134.800781 203.867188 134.800781 204.449219 M 137.066406 228.136719 L 128.480469 228.136719 L 128.480469 227.011719 C 128.757813 226.988281 129.039063 226.964844 129.335938 226.9375 C 129.628906 226.917969 129.882813 226.871094 130.09375 226.800781 C 130.433594 226.703125 130.6875 226.523438 130.84375 226.265625 C 131.007813 226.011719 131.089844 225.675781 131.089844 225.269531 L 131.089844 214.867188 C 131.089844 214.5 131 214.167969 130.828125 213.863281 C 130.65625 213.5625 130.410156 213.308594 130.09375 213.105469 C 129.871094 212.96875 129.542969 212.847656 129.105469 212.753906 C 128.675781 212.65625 128.285156 212.597656 127.921875 212.574219 L 127.921875 211.46875 L 134.1875 211.089844 L 134.441406 211.328125 L 134.441406 225.066406 C 134.441406 225.460938 134.523438 225.792969 134.679688 226.058594 C 134.839844 226.3125 135.101563 226.511719 135.449219 226.632813 C 135.714844 226.738281 135.972656 226.816406 136.226563 226.882813 C 136.476563 226.9375 136.753906 226.988281 137.066406 227.011719 "/>
<path style=" stroke:none;fill-rule:nonzero;fill:rgb(17.259216%,17.259216%,16.868591%);fill-opacity:1;" d="M 151.933594 217.753906 C 151.933594 217.113281 151.878906 216.429688 151.761719 215.703125 C 151.644531 214.972656 151.46875 214.363281 151.214844 213.875 C 150.9375 213.351563 150.558594 212.925781 150.078125 212.59375 C 149.597656 212.261719 148.976563 212.097656 148.222656 212.097656 C 146.964844 212.097656 145.917969 212.59375 145.082031 213.589844 C 144.246094 214.585938 143.792969 215.976563 143.722656 217.753906 Z M 155.910156 224.171875 C 155.164063 225.519531 154.171875 226.585938 152.925781 227.382813 C 151.675781 228.179688 150.238281 228.578125 148.621094 228.578125 C 147.191406 228.578125 145.941406 228.34375 144.867188 227.863281 C 143.789063 227.382813 142.902344 226.738281 142.210938 225.914063 C 141.515625 225.097656 140.992188 224.132813 140.648438 223.046875 C 140.308594 221.953125 140.140625 220.796875 140.140625 219.578125 C 140.140625 218.484375 140.324219 217.414063 140.6875 216.359375 C 141.054688 215.304688 141.589844 214.359375 142.304688 213.515625 C 142.984375 212.710938 143.835938 212.054688 144.847656 211.558594 C 145.863281 211.066406 147 210.8125 148.257813 210.8125 C 149.554688 210.8125 150.667969 211.007813 151.589844 211.402344 C 152.519531 211.785156 153.269531 212.3125 153.839844 212.984375 C 154.394531 213.625 154.804688 214.375 155.074219 215.242188 C 155.347656 216.109375 155.480469 217.046875 155.480469 218.058594 L 155.480469 219.1875 L 143.722656 219.1875 C 143.722656 220.289063 143.835938 221.289063 144.054688 222.1875 C 144.273438 223.09375 144.625 223.878906 145.109375 224.570313 C 145.578125 225.226563 146.1875 225.746094 146.941406 226.132813 C 147.699219 226.511719 148.601563 226.703125 149.648438 226.703125 C 150.71875 226.703125 151.636719 226.460938 152.410156 225.992188 C 153.183594 225.519531 153.933594 224.667969 154.648438 223.4375 "/>
<path style=" stroke:none;fill-rule:nonzero;fill:rgb(17.259216%,17.259216%,16.868591%);fill-opacity:1;" d="M 170.574219 219.886719 C 171.066406 220.292969 171.449219 220.765625 171.710938 221.300781 C 171.976563 221.839844 172.105469 222.492188 172.105469 223.269531 C 172.105469 224.832031 171.492188 226.101563 170.261719 227.09375 C 169.03125 228.085938 167.433594 228.578125 165.480469 228.578125 C 164.445313 228.578125 163.496094 228.40625 162.625 228.046875 C 161.753906 227.699219 161.132813 227.375 160.757813 227.078125 L 160.402344 228.1875 L 159.050781 228.1875 L 158.871094 222.328125 L 160.113281 222.328125 C 160.210938 222.773438 160.414063 223.292969 160.730469 223.878906 C 161.035156 224.476563 161.417969 225.011719 161.859375 225.492188 C 162.328125 225.992188 162.890625 226.410156 163.542969 226.753906 C 164.199219 227.09375 164.929688 227.269531 165.75 227.269531 C 166.90625 227.269531 167.789063 227.015625 168.417969 226.523438 C 169.039063 226.027344 169.351563 225.320313 169.351563 224.394531 C 169.351563 223.917969 169.253906 223.507813 169.058594 223.160156 C 168.851563 222.808594 168.566406 222.507813 168.183594 222.242188 C 167.78125 221.980469 167.300781 221.746094 166.71875 221.535156 C 166.144531 221.328125 165.507813 221.117188 164.800781 220.914063 C 164.234375 220.746094 163.605469 220.535156 162.914063 220.253906 C 162.21875 219.972656 161.632813 219.648438 161.140625 219.269531 C 160.609375 218.871094 160.183594 218.382813 159.84375 217.804688 C 159.503906 217.222656 159.339844 216.539063 159.339844 215.753906 C 159.339844 214.375 159.878906 213.207031 160.964844 212.25 C 162.042969 211.292969 163.488281 210.8125 165.300781 210.8125 C 165.992188 210.8125 166.710938 210.902344 167.433594 211.074219 C 168.15625 211.246094 168.75 211.449219 169.210938 211.691406 L 169.621094 210.796875 L 170.917969 210.796875 L 171.1875 216.214844 L 169.945313 216.214844 C 169.695313 215.007813 169.148438 214.03125 168.3125 213.269531 C 167.484375 212.511719 166.464844 212.132813 165.265625 212.132813 C 164.28125 212.132813 163.507813 212.367188 162.941406 212.832031 C 162.375 213.296875 162.09375 213.863281 162.09375 214.523438 C 162.09375 215.035156 162.183594 215.460938 162.375 215.804688 C 162.558594 216.140625 162.839844 216.4375 163.210938 216.671875 C 163.574219 216.902344 164.019531 217.117188 164.566406 217.316406 C 165.117188 217.515625 165.796875 217.742188 166.597656 217.992188 C 167.390625 218.230469 168.132813 218.511719 168.835938 218.828125 C 169.542969 219.148438 170.121094 219.5 170.574219 219.886719 "/>
<path style=" stroke:none;fill-rule:nonzero;fill:rgb(17.259216%,17.259216%,16.868591%);fill-opacity:1;" d="M 204.671875 220.929688 L 204.128906 228.136719 L 184.160156 228.136719 L 184.160156 226.921875 C 184.449219 226.898438 184.867188 226.859375 185.410156 226.800781 C 185.960938 226.75 186.339844 226.671875 186.554688 226.582031 C 186.914063 226.433594 187.175781 226.21875 187.339844 225.933594 C 187.503906 225.644531 187.582031 225.285156 187.582031 224.84375 L 187.582031 207.484375 C 187.582031 207.101563 187.515625 206.757813 187.371094 206.460938 C 187.238281 206.164063 186.964844 205.921875 186.554688 205.742188 C 186.277344 205.609375 185.894531 205.476563 185.394531 205.339844 C 184.894531 205.214844 184.484375 205.136719 184.160156 205.113281 L 184.160156 203.898438 L 194.945313 203.898438 L 194.945313 205.113281 C 194.605469 205.125 194.179688 205.175781 193.644531 205.285156 C 193.105469 205.386719 192.722656 205.476563 192.480469 205.558594 C 192.070313 205.691406 191.792969 205.921875 191.636719 206.257813 C 191.492188 206.585938 191.414063 206.9375 191.414063 207.316406 L 191.414063 223.59375 C 191.414063 224.347656 191.453125 224.929688 191.535156 225.34375 C 191.613281 225.757813 191.792969 226.082031 192.082031 226.3125 C 192.359375 226.515625 192.769531 226.652344 193.316406 226.710938 C 193.863281 226.773438 194.625 226.800781 195.609375 226.800781 C 196.058594 226.800781 196.519531 226.792969 197 226.773438 C 197.480469 226.75 197.933594 226.703125 198.371094 226.632813 C 198.785156 226.5625 199.175781 226.46875 199.53125 226.351563 C 199.882813 226.230469 200.144531 226.082031 200.3125 225.894531 C 200.804688 225.371094 201.375 224.578125 202.03125 223.519531 C 202.683594 222.453125 203.140625 221.589844 203.390625 220.929688 "/>
<path style=" stroke:none;fill-rule:nonzero;fill:rgb(17.259216%,17.259216%,16.868591%);fill-opacity:1;" d="M 213.191406 204.449219 C 213.191406 205.09375 212.972656 205.660156 212.515625 206.144531 C 212.070313 206.628906 211.515625 206.875 210.851563 206.875 C 210.242188 206.875 209.707031 206.640625 209.261719 206.179688 C 208.808594 205.71875 208.585938 205.1875 208.585938 204.597656 C 208.585938 203.972656 208.808594 203.429688 209.261719 202.960938 C 209.707031 202.492188 210.242188 202.261719 210.851563 202.261719 C 211.539063 202.261719 212.101563 202.480469 212.535156 202.914063 C 212.972656 203.359375 213.191406 203.867188 213.191406 204.449219 M 215.460938 228.136719 L 206.875 228.136719 L 206.875 227.011719 C 207.152344 226.988281 207.433594 226.964844 207.730469 226.9375 C 208.027344 226.917969 208.277344 226.871094 208.492188 226.800781 C 208.828125 226.703125 209.082031 226.523438 209.238281 226.265625 C 209.402344 226.011719 209.484375 225.675781 209.484375 225.269531 L 209.484375 214.867188 C 209.484375 214.5 209.394531 214.167969 209.222656 213.863281 C 209.050781 213.5625 208.804688 213.308594 208.492188 213.105469 C 208.261719 212.96875 207.9375 212.847656 207.503906 212.753906 C 207.070313 212.65625 206.679688 212.597656 206.316406 212.574219 L 206.316406 211.46875 L 212.585938 211.089844 L 212.839844 211.328125 L 212.839844 225.066406 C 212.839844 225.460938 212.917969 225.792969 213.078125 226.058594 C 213.238281 226.3125 213.492188 226.511719 213.84375 226.632813 C 214.109375 226.738281 214.367188 226.816406 214.617188 226.882813 C 214.871094 226.9375 215.148438 226.988281 215.460938 227.011719 "/>
<path style=" stroke:none;fill-rule:nonzero;fill:rgb(17.259216%,17.259216%,16.868591%);fill-opacity:1;" d="M 248.945313 228.136719 L 240.285156 228.136719 L 240.285156 227.011719 C 240.5625 226.988281 240.839844 226.964844 241.121094 226.9375 C 241.40625 226.917969 241.65625 226.871094 241.871094 226.800781 C 242.210938 226.703125 242.457031 226.523438 242.617188 226.265625 C 242.78125 226.011719 242.859375 225.675781 242.859375 225.269531 L 242.859375 216.574219 C 242.859375 215.386719 242.578125 214.476563 242.007813 213.828125 C 241.433594 213.1875 240.722656 212.867188 239.875 212.867188 C 239.28125 212.867188 238.730469 212.957031 238.214844 213.121094 C 237.699219 213.292969 237.222656 213.535156 236.796875 213.839844 C 236.445313 214.09375 236.15625 214.359375 235.925781 214.652344 C 235.679688 214.941406 235.507813 215.183594 235.386719 215.378906 L 235.386719 225.097656 C 235.386719 225.496094 235.460938 225.820313 235.601563 226.082031 C 235.75 226.335938 235.992188 226.535156 236.339844 226.667969 C 236.617188 226.773438 236.871094 226.847656 237.089844 226.898438 C 237.308594 226.945313 237.597656 226.988281 237.964844 227.011719 L 237.964844 228.136719 L 229.480469 228.136719 L 229.480469 227.011719 C 229.757813 226.988281 230.027344 226.964844 230.285156 226.9375 C 230.542969 226.917969 230.777344 226.871094 230.992188 226.800781 C 231.328125 226.703125 231.574219 226.523438 231.742188 226.265625 C 231.902344 226.011719 231.980469 225.675781 231.980469 225.269531 L 231.980469 216.574219 C 231.980469 215.386719 231.699219 214.476563 231.128906 213.828125 C 230.554688 213.1875 229.847656 212.867188 228.992188 212.867188 C 228.402344 212.867188 227.855469 212.957031 227.34375 213.128906 C 226.824219 213.308594 226.34375 213.550781 225.914063 213.859375 C 225.5625 214.109375 225.277344 214.386719 225.035156 214.707031 C 224.800781 215.019531 224.613281 215.253906 224.496094 215.40625 L 224.496094 225.066406 C 224.496094 225.449219 224.574219 225.773438 224.75 226.039063 C 224.914063 226.296875 225.164063 226.5 225.503906 226.632813 C 225.757813 226.75 226.011719 226.832031 226.277344 226.886719 C 226.539063 226.945313 226.835938 226.988281 227.15625 227.011719 L 227.15625 228.136719 L 218.535156 228.136719 L 218.535156 227.011719 C 218.808594 226.988281 219.09375 226.964844 219.390625 226.9375 C 219.683594 226.917969 219.9375 226.871094 220.15625 226.800781 C 220.488281 226.703125 220.738281 226.523438 220.902344 226.265625 C 221.0625 226.011719 221.144531 225.675781 221.144531 225.269531 L 221.144531 214.796875 C 221.144531 214.429688 221.058594 214.105469 220.882813 213.8125 C 220.710938 213.527344 220.464844 213.277344 220.15625 213.070313 C 219.929688 212.9375 219.644531 212.824219 219.308594 212.742188 C 218.96875 212.652344 218.625 212.597656 218.261719 212.574219 L 218.261719 211.46875 L 224.207031 211.089844 L 224.460938 211.328125 L 224.460938 213.738281 L 224.582031 213.738281 C 224.882813 213.453125 225.253906 213.117188 225.679688 212.726563 C 226.113281 212.34375 226.515625 212.027344 226.886719 211.789063 C 227.308594 211.511719 227.835938 211.289063 228.46875 211.109375 C 229.09375 210.925781 229.773438 210.832031 230.507813 210.832031 C 231.664063 210.832031 232.652344 211.132813 233.480469 211.714844 C 234.304688 212.300781 234.902344 213.007813 235.265625 213.839844 C 235.691406 213.441406 236.074219 213.089844 236.410156 212.792969 C 236.730469 212.492188 237.171875 212.167969 237.710938 211.824219 C 238.164063 211.527344 238.707031 211.289063 239.320313 211.109375 C 239.941406 210.925781 240.628906 210.832031 241.386719 210.832031 C 242.886719 210.832031 244.074219 211.300781 244.949219 212.234375 C 245.824219 213.171875 246.265625 214.605469 246.265625 216.539063 L 246.265625 225.097656 C 246.265625 225.496094 246.335938 225.820313 246.480469 226.082031 C 246.625 226.335938 246.867188 226.535156 247.21875 226.667969 C 247.496094 226.773438 247.765625 226.847656 248.039063 226.898438 C 248.308594 226.945313 248.613281 226.988281 248.945313 227.011719 "/>
<path style=" stroke:none;fill-rule:nonzero;fill:rgb(17.259216%,17.259216%,16.868591%);fill-opacity:1;" d="M 258.265625 204.449219 C 258.265625 205.09375 258.042969 205.660156 257.585938 206.144531 C 257.140625 206.628906 256.585938 206.875 255.921875 206.875 C 255.3125 206.875 254.777344 206.640625 254.328125 206.179688 C 253.878906 205.71875 253.652344 205.1875 253.652344 204.597656 C 253.652344 203.972656 253.878906 203.429688 254.328125 202.960938 C 254.777344 202.492188 255.3125 202.261719 255.921875 202.261719 C 256.609375 202.261719 257.167969 202.480469 257.605469 202.914063 C 258.042969 203.359375 258.265625 203.867188 258.265625 204.449219 M 260.53125 228.136719 L 251.945313 228.136719 L 251.945313 227.011719 C 252.222656 226.988281 252.503906 226.964844 252.796875 226.9375 C 253.09375 226.917969 253.347656 226.871094 253.5625 226.800781 C 253.902344 226.703125 254.152344 226.523438 254.3125 226.265625 C 254.472656 226.011719 254.558594 225.675781 254.558594 225.269531 L 254.558594 214.867188 C 254.558594 214.5 254.464844 214.167969 254.292969 213.863281 C 254.117188 213.5625 253.875 213.308594 253.5625 213.105469 C 253.335938 212.96875 253.007813 212.847656 252.570313 212.753906 C 252.140625 212.65625 251.746094 212.597656 251.386719 212.574219 L 251.386719 211.46875 L 257.65625 211.089844 L 257.90625 211.328125 L 257.90625 225.066406 C 257.90625 225.460938 257.988281 225.792969 258.144531 226.058594 C 258.304688 226.3125 258.5625 226.511719 258.914063 226.632813 C 259.179688 226.738281 259.4375 226.816406 259.691406 226.882813 C 259.941406 226.9375 260.21875 226.988281 260.53125 227.011719 "/>
<path style=" stroke:none;fill-rule:nonzero;fill:rgb(17.259216%,17.259216%,16.868591%);fill-opacity:1;" d="M 274.566406 227.402344 C 273.789063 227.710938 273.050781 227.96875 272.359375 228.175781 C 271.652344 228.386719 270.804688 228.5 269.800781 228.5 C 268.3125 228.5 267.261719 228.136719 266.660156 227.425781 C 266.050781 226.714844 265.75 225.714844 265.75 224.410156 L 265.75 213 L 262.539063 213 L 262.539063 211.363281 L 265.816406 211.363281 L 265.816406 206.121094 L 269.097656 206.121094 L 269.097656 211.363281 L 274.191406 211.363281 L 274.191406 213 L 269.128906 213 L 269.128906 222.417969 C 269.128906 223.121094 269.160156 223.710938 269.214844 224.183594 C 269.265625 224.652344 269.390625 225.070313 269.601563 225.417969 C 269.792969 225.75 270.082031 226.003906 270.460938 226.171875 C 270.851563 226.339844 271.367188 226.425781 272.011719 226.425781 C 272.3125 226.425781 272.757813 226.402344 273.335938 226.351563 C 273.917969 226.296875 274.328125 226.234375 274.566406 226.15625 "/>
<path style=" stroke:none;fill-rule:nonzero;fill:rgb(17.259216%,17.259216%,16.868591%);fill-opacity:1;" d="M 289.019531 217.753906 C 289.019531 217.113281 288.960938 216.429688 288.847656 215.703125 C 288.730469 214.972656 288.550781 214.363281 288.296875 213.875 C 288.019531 213.351563 287.640625 212.925781 287.160156 212.59375 C 286.683594 212.261719 286.0625 212.097656 285.304688 212.097656 C 284.042969 212.097656 283 212.59375 282.164063 213.589844 C 281.328125 214.585938 280.878906 215.976563 280.804688 217.753906 Z M 292.996094 224.171875 C 292.25 225.519531 291.257813 226.585938 290.007813 227.382813 C 288.761719 228.179688 287.324219 228.578125 285.703125 228.578125 C 284.273438 228.578125 283.027344 228.34375 281.949219 227.863281 C 280.875 227.382813 279.988281 226.738281 279.296875 225.914063 C 278.597656 225.097656 278.078125 224.132813 277.730469 223.046875 C 277.394531 221.953125 277.222656 220.796875 277.222656 219.578125 C 277.222656 218.484375 277.40625 217.414063 277.769531 216.359375 C 278.140625 215.304688 278.671875 214.359375 279.386719 213.515625 C 280.066406 212.710938 280.917969 212.054688 281.933594 211.558594 C 282.945313 211.066406 284.082031 210.8125 285.34375 210.8125 C 286.640625 210.8125 287.75 211.007813 288.671875 211.402344 C 289.601563 211.785156 290.351563 212.3125 290.925781 212.984375 C 291.476563 213.625 291.886719 214.375 292.160156 215.242188 C 292.429688 216.109375 292.566406 217.046875 292.566406 218.058594 L 292.566406 219.1875 L 280.804688 219.1875 C 280.804688 220.289063 280.917969 221.289063 281.136719 222.1875 C 281.359375 223.09375 281.710938 223.878906 282.195313 224.570313 C 282.660156 225.226563 283.269531 225.746094 284.027344 226.132813 C 284.78125 226.511719 285.6875 226.703125 286.730469 226.703125 C 287.800781 226.703125 288.726563 226.460938 289.496094 225.992188 C 290.265625 225.519531 291.015625 224.667969 291.734375 223.4375 "/>
<g clip-path="url(#clip6)" clip-rule="nonzero">
<path style=" stroke:none;fill-rule:nonzero;fill:rgb(17.259216%,17.259216%,16.868591%);fill-opacity:1;" d="M 308.882813 224.871094 L 308.882813 215.019531 C 308.789063 214.722656 308.628906 214.40625 308.414063 214.0625 C 308.199219 213.71875 307.929688 213.410156 307.605469 213.121094 C 307.257813 212.839844 306.847656 212.597656 306.378906 212.414063 C 305.914063 212.226563 305.367188 212.132813 304.746094 212.132813 C 304.019531 212.132813 303.355469 212.308594 302.753906 212.664063 C 302.144531 213.011719 301.609375 213.519531 301.144531 214.183594 C 300.691406 214.820313 300.34375 215.628906 300.089844 216.617188 C 299.828125 217.601563 299.699219 218.691406 299.699219 219.886719 C 299.699219 220.84375 299.800781 221.710938 299.988281 222.492188 C 300.175781 223.277344 300.503906 223.996094 300.960938 224.667969 C 301.382813 225.308594 301.921875 225.820313 302.574219 226.207031 C 303.226563 226.59375 304.003906 226.789063 304.90625 226.789063 C 305.863281 226.789063 306.664063 226.585938 307.289063 226.1875 C 307.925781 225.792969 308.453125 225.347656 308.882813 224.871094 M 315.386719 227.828125 L 309.191406 228.207031 L 308.921875 227.96875 L 308.921875 226.390625 L 308.777344 226.359375 C 308.148438 227.023438 307.382813 227.558594 306.460938 227.984375 C 305.546875 228.40625 304.597656 228.617188 303.628906 228.617188 C 302.617188 228.617188 301.644531 228.402344 300.699219 227.972656 C 299.761719 227.546875 298.9375 226.945313 298.242188 226.171875 C 297.535156 225.382813 296.96875 224.441406 296.558594 223.335938 C 296.148438 222.230469 295.9375 221.011719 295.9375 219.683594 C 295.9375 218.464844 296.160156 217.3125 296.605469 216.214844 C 297.050781 215.125 297.660156 214.167969 298.4375 213.34375 C 299.171875 212.578125 300.070313 211.976563 301.132813 211.511719 C 302.195313 211.058594 303.277344 210.832031 304.382813 210.832031 C 305.214844 210.832031 306.023438 210.933594 306.824219 211.132813 C 307.625 211.332031 308.308594 211.585938 308.882813 211.894531 L 308.882813 206.035156 C 308.882813 205.558594 308.800781 205.117188 308.628906 204.730469 C 308.464844 204.332031 308.230469 204.03125 307.929688 203.832031 C 307.589844 203.613281 307.144531 203.457031 306.570313 203.359375 C 306 203.265625 305.382813 203.199219 304.730469 203.148438 L 304.730469 202.089844 L 311.980469 201.695313 L 312.25 201.957031 L 312.25 224.667969 C 312.25 225.070313 312.328125 225.40625 312.496094 225.6875 C 312.65625 225.960938 312.894531 226.203125 313.210938 226.390625 C 313.4375 226.535156 313.761719 226.613281 314.199219 226.652344 C 314.628906 226.683594 315.023438 226.710938 315.386719 226.71875 "/>
</g>
</g>
</svg>